<?xml version="1.0" encoding="us-ascii" standalone="no"?><svg xmlns="http://www.w3.org/2000/svg" xmlns:xlink="http://www.w3.org/1999/xlink" contentStyleType="text/css" height="606px" preserveAspectRatio="none" style="width:1042px;height:606px;background:#FFFFFF;" version="1.1" viewBox="0 0 1042 606" width="1042px" zoomAndPan="magnify"><defs/><g><!--cluster reactive_frontend--><g id="cluster_reactive_frontend"><rect fill="none" height="50" rx="2.5" ry="2.5" style="stroke:#181818;stroke-width:1.0;" width="331.5" x="595" y="98.5"/><rect fill="none" height="10" style="stroke:#181818;stroke-width:1.0;" width="15" x="906.5" y="103.5"/><rect fill="none" height="2" style="stroke:#181818;stroke-width:1.0;" width="4" x="904.5" y="105.5"/><rect fill="none" height="2" style="stroke:#181818;stroke-width:1.0;" width="4" x="904.5" y="109.5"/><text fill="#000000" font-family="sans-serif" font-size="14" font-weight="bold" lengthAdjust="spacing" textLength="175" x="673.25" y="126.0332">React Reactive Frontend</text></g><!--cluster system_backend--><g id="cluster_system_backend"><rect fill="none" height="177" rx="2.5" ry="2.5" style="stroke:#181818;stroke-width:1.0;" width="300" x="295" y="154.5"/><rect fill="none" height="10" style="stroke:#181818;stroke-width:1.0;" width="15" x="575" y="159.5"/><rect fill="none" height="2" style="stroke:#181818;stroke-width:1.0;" width="4" x="573" y="161.5"/><rect fill="none" height="2" style="stroke:#181818;stroke-width:1.0;" width="4" x="573" y="165.5"/><text fill="#000000" font-family="sans-serif" font-size="14" font-weight="bold" lengthAdjust="spacing" textLength="152" x="369" y="182.0332">Java System Backend</text></g><!--cluster database_mysql_db--><g id="cluster_database_mysql_db"><path d="M6,531.5 C6,521.5 150.5,521.5 150.5,521.5 C150.5,521.5 295,521.5 295,531.5 L295,579.5 C295,589.5 150.5,589.5 150.5,589.5 C150.5,589.5 6,589.5 6,579.5 L6,531.5 " fill="none" style="stroke:#181818;stroke-width:1.0;"/><path d="M6,531.5 C6,541.5 150.5,541.5 150.5,541.5 C150.5,541.5 295,541.5 295,531.5 " fill="none" style="stroke:#181818;stroke-width:1.0;"/><text fill="#000000" font-family="sans-serif" font-size="14" font-weight="bold" lengthAdjust="spacing" textLength="191" x="55" y="558.0332">MySQL Relational Database</text></g><text fill="#000000" font-family="sans-serif" font-size="14" lengthAdjust="spacing" textLength="4" x="924.5" y="103.4238">&#160;</text><rect fill="#F1F1F1" height="12" style="stroke:#181818;stroke-width:1.5;" width="12" x="920.5" y="118.5"/><text fill="#000000" font-family="sans-serif" font-size="14" lengthAdjust="spacing" textLength="4" x="593" y="151.0332">&#160;</text><rect fill="#F1F1F1" height="12" style="stroke:#181818;stroke-width:1.5;" width="12" x="589" y="124.5"/><text fill="#000000" font-family="sans-serif" font-size="14" lengthAdjust="spacing" textLength="4" x="593" y="213.4238">&#160;</text><rect fill="#F1F1F1" height="12" style="stroke:#181818;stroke-width:1.5;" width="12" x="589" y="228.5"/><text fill="#000000" font-family="sans-serif" font-size="14" lengthAdjust="spacing" textLength="4" x="293" y="287.0332">&#160;</text><rect fill="#F1F1F1" height="12" style="stroke:#181818;stroke-width:1.5;" width="12" x="289" y="260.5"/><text fill="#000000" font-family="sans-serif" font-size="14" lengthAdjust="spacing" textLength="4" x="293" y="198.4238">&#160;</text><rect fill="#F1F1F1" height="12" style="stroke:#181818;stroke-width:1.5;" width="12" x="289" y="213.5"/><text fill="#000000" font-family="sans-serif" font-size="14" lengthAdjust="spacing" textLength="4" x="293" y="151.4238">&#160;</text><rect fill="#F1F1F1" height="12" style="stroke:#181818;stroke-width:1.5;" width="12" x="289" y="166.5"/><text fill="#000000" font-family="sans-serif" font-size="14" lengthAdjust="spacing" textLength="4" x="293" y="334.0332">&#160;</text><rect fill="#F1F1F1" height="12" style="stroke:#181818;stroke-width:1.5;" width="12" x="289" y="307.5"/><text fill="#000000" font-family="sans-serif" font-size="14" lengthAdjust="spacing" textLength="4" x="293" y="534.4238">&#160;</text><rect fill="#F1F1F1" height="12" style="stroke:#181818;stroke-width:1.5;" width="12" x="289" y="549.5"/><!--entity User--><g id="elem_User"><ellipse cx="926.5" cy="14" fill="#F1F1F1" rx="8" ry="8" style="stroke:#181818;stroke-width:0.5;"/><path d="M926.5,22 L926.5,49 M913.5,30 L939.5,30 M926.5,49 L913.5,64 M926.5,49 L939.5,64 " fill="none" style="stroke:#181818;stroke-width:0.5;"/><text fill="#000000" font-family="sans-serif" font-size="14" lengthAdjust="spacing" textLength="29" x="912" y="80.0332">User</text></g><!--entity interface_frontendpage--><g id="elem_interface_frontendpage"><ellipse cx="1028" cy="84.5" fill="#F1F1F1" rx="8" ry="8" style="stroke:#181818;stroke-width:0.5;"/></g><!--entity interface_ai_api--><g id="elem_interface_ai_api"><ellipse cx="445" cy="460.5" fill="#F1F1F1" rx="8" ry="8" style="stroke:#181818;stroke-width:0.5;"/><text fill="#000000" font-family="sans-serif" font-size="14" lengthAdjust="spacing" textLength="37" x="426.5" y="492.0332">AI API</text></g><!--entity interface_google_api--><g id="elem_interface_google_api"><ellipse cx="445" cy="365.5" fill="#F1F1F1" rx="8" ry="8" style="stroke:#181818;stroke-width:0.5;"/><text fill="#000000" font-family="sans-serif" font-size="14" lengthAdjust="spacing" textLength="71" x="409.5" y="397.0332">Google API</text></g><!--entity interface_backend--><g id="elem_interface_backend"><ellipse cx="756.5" cy="211.5" fill="#F1F1F1" rx="8" ry="8" style="stroke:#181818;stroke-width:0.5;"/><text fill="#000000" font-family="sans-serif" font-size="14" lengthAdjust="spacing" textLength="80" x="716.5" y="243.0332">Backend API</text></g><!--entity interface_mysql_db--><g id="elem_interface_mysql_db"><ellipse cx="445" cy="555.5" fill="#F1F1F1" rx="8" ry="8" style="stroke:#181818;stroke-width:0.5;"/><text fill="#000000" font-family="sans-serif" font-size="14" lengthAdjust="spacing" textLength="71" x="409.5" y="587.0332">MySQL API</text></g><!--link port_frontend_to_user to interface_frontendpage--><g id="link_port_frontend_to_user_interface_frontendpage"><path d="M932.57,122.46 C948.73,115.97 999.1,95.72 1018.89,87.76 " fill="none" id="port_frontend_to_user-interface_frontendpage" style="stroke:#181818;stroke-width:1.0;"/></g><!--link User to interface_frontendpage--><g id="link_User_interface_frontendpage"><path d="M941.34,50.06 C962.37,58.52 992.4816,70.6201 1009.5216,77.4701 " fill="none" id="User-to-interface_frontendpage" style="stroke:#181818;stroke-width:1.0;"/><path d="M1019.0984,72.2049 A9,9 0 0 0 1012.7895 87.8988" fill="none" style="stroke:#181818;stroke-width:1.5;"/></g><!--link port_backend_from_frontend to interface_backend--><g id="link_port_backend_from_frontend_interface_backend"><path d="M601.31,233.73 C624.77,230.35 719.25,216.73 747.49,212.66 " fill="none" id="port_backend_from_frontend-interface_backend" style="stroke:#181818;stroke-width:1.0;"/></g><!--link port_frontend_to_backend to interface_backend--><g id="link_port_frontend_to_backend_interface_backend"><path d="M601.31,133.2 C624.77,145.11 710.3337,188.5624 738.5737,202.9024 " fill="none" id="port_frontend_to_backend-to-interface_backend" style="stroke:#181818;stroke-width:1.0;"/><path d="M748.5745,198.4956 A9,9 0 0 0 740.9163 213.5771" fill="none" style="stroke:#181818;stroke-width:1.5;"/></g><!--link port_backend_to_ai_api to interface_ai_api--><g id="link_port_backend_to_ai_api_interface_ai_api"><path d="M299.69,272.68 C302.45,277.45 306.22,284.27 309,290.5 C332.67,343.51 314.77,369.8 353,413.5 C376.3,440.13 408.7062,451.1516 426.2862,455.9016 " fill="none" id="port_backend_to_ai_api-to-interface_ai_api" style="stroke:#181818;stroke-width:1.0;"/><path d="M435.1744,449.5426 A9,9 0 0 0 430.7624 465.8715" fill="none" style="stroke:#181818;stroke-width:1.5;"/></g><!--link port_backend_to_google_api to interface_google_api--><g id="link_port_backend_to_google_api_interface_google_api"><path d="M301.27,224.7 C323.41,246.54 401.9101,323.9881 428.7701,350.4781 " fill="none" id="port_backend_to_google_api-to-interface_google_api" style="stroke:#181818;stroke-width:1.0;"/><path d="M439.6369,349.317 A9,9 0 0 0 427.7598 361.36" fill="none" style="stroke:#181818;stroke-width:1.5;"/></g><!--link port_db_from_backend to interface_mysql_db--><g id="link_port_db_from_backend_interface_mysql_db"><path d="M301.27,555.5 C323.41,555.5 409.03,555.5 435.89,555.5 " fill="none" id="port_db_from_backend-interface_mysql_db" style="stroke:#181818;stroke-width:1.0;"/></g><!--link port_backend_from_db to interface_mysql_db--><g id="link_port_backend_from_db_interface_mysql_db"><path d="M296.11,319.71 C296.91,345.81 303.21,448.07 353,508.5 C375.5,535.81 408.3212,546.5848 426.1312,551.1348 " fill="none" id="port_backend_from_db-to-interface_mysql_db" style="stroke:#181818;stroke-width:1.0;"/><path d="M434.931,544.654 A9,9 0 0 0 430.7442 561.0421" fill="none" style="stroke:#181818;stroke-width:1.5;"/></g><!--SRC=[ZLFBReCm4BplLwouq4i-8bKVIjLARQASqG9EQXKmDKwagCg_r_X1WDffu69sPptBx4x5TWgLGCdtdmfBBbcXk6W0g512uhPZ4g0GTIiQrYYKJCVvaMKxAHh5cXAfmsJTHt7jSlZaSWd-0Egd5LA9Wy94lnhUVmxrcHBPeIVnGDv4SJaLN_e8vr53tQbJhFOfqyqB7Gat9extDdwj4rVQCzK3NQmT3zRT4C-evJS0zqBiAtOZcDN4gyp-rNzmqt6PQpqWlIWod2Pt6MKU-u2JffSaZMaohhGqNllq32KfogbZw0zPVUg-Azs98NaxRJvUzJ9Kr2yILVZWODU6KEPJ6lrB05oFGkweO3YSXW6rj6U63fCmq8x7G9OhNBwl4iGWy38U0tusdwOW21zlcjikUtiG7L36WjCGUYHxysTWjYK8kWSNYuX6iBNfkrWUuYQOtkf74xFbZCJ3PmI3SMPmvwQuTsRuaQaWj47JtlqO8EIVsSq35jBhNfXIZ6VdAYEsdl6D2ty1]--></g></svg>