<?xml version="1.0" encoding="us-ascii" standalone="no"?><svg xmlns="http://www.w3.org/2000/svg" xmlns:xlink="http://www.w3.org/1999/xlink" contentStyleType="text/css" height="291px" preserveAspectRatio="none" style="width:1415px;height:291px;background:#FFFFFF;" version="1.1" viewBox="0 0 1415 291" width="1415px" zoomAndPan="magnify"><defs/><g><!--cluster reactive_frontend--><g id="cluster_reactive_frontend"><rect fill="none" height="83" rx="2.5" ry="2.5" style="stroke:#181818;stroke-width:1.0;" width="348" x="965" y="97.5"/><rect fill="none" height="10" style="stroke:#181818;stroke-width:1.0;" width="15" x="1293" y="102.5"/><rect fill="none" height="2" style="stroke:#181818;stroke-width:1.0;" width="4" x="1291" y="104.5"/><rect fill="none" height="2" style="stroke:#181818;stroke-width:1.0;" width="4" x="1291" y="108.5"/><text fill="#000000" font-family="sans-serif" font-size="14" font-weight="bold" lengthAdjust="spacing" textLength="197" x="1040.5" y="125.0332">React Responsive Frontend</text></g><!--cluster system_backend--><g id="cluster_system_backend"><rect fill="none" height="83" rx="2.5" ry="2.5" style="stroke:#181818;stroke-width:1.0;" width="336" x="518" y="159.5"/><rect fill="none" height="10" style="stroke:#181818;stroke-width:1.0;" width="15" x="834" y="164.5"/><rect fill="none" height="2" style="stroke:#181818;stroke-width:1.0;" width="4" x="832" y="166.5"/><rect fill="none" height="2" style="stroke:#181818;stroke-width:1.0;" width="4" x="832" y="170.5"/><text fill="#000000" font-family="sans-serif" font-size="14" font-weight="bold" lengthAdjust="spacing" textLength="152" x="610" y="187.0332">Java System Backend</text></g><!--cluster ai_component--><g id="cluster_ai_component"><rect fill="none" height="83" rx="2.5" ry="2.5" style="stroke:#181818;stroke-width:1.0;" width="293" x="7" y="56.5"/><rect fill="none" height="10" style="stroke:#181818;stroke-width:1.0;" width="15" x="280" y="61.5"/><rect fill="none" height="2" style="stroke:#181818;stroke-width:1.0;" width="4" x="278" y="63.5"/><rect fill="none" height="2" style="stroke:#181818;stroke-width:1.0;" width="4" x="278" y="67.5"/><text fill="#000000" font-family="sans-serif" font-size="14" font-weight="bold" lengthAdjust="spacing" textLength="195" x="56" y="84.0332">AI Python query constructor</text></g><!--cluster database_mysql_db--><g id="cluster_database_mysql_db"><path d="M9,216.5 C9,206.5 154.5,206.5 154.5,206.5 C154.5,206.5 300,206.5 300,216.5 L300,264.5 C300,274.5 154.5,274.5 154.5,274.5 C154.5,274.5 9,274.5 9,264.5 L9,216.5 " fill="none" style="stroke:#181818;stroke-width:1.0;"/><path d="M9,216.5 C9,226.5 154.5,226.5 154.5,226.5 C154.5,226.5 300,226.5 300,216.5 " fill="none" style="stroke:#181818;stroke-width:1.0;"/><text fill="#000000" font-family="sans-serif" font-size="14" font-weight="bold" lengthAdjust="spacing" textLength="191" x="59" y="243.0332">MySQL Relational Database</text></g><text fill="#000000" font-family="sans-serif" font-size="14" lengthAdjust="spacing" textLength="4" x="1311" y="106.4238">&#160;</text><rect fill="#F1F1F1" height="12" style="stroke:#181818;stroke-width:1.5;" width="12" x="1307" y="121.5"/><text fill="#000000" font-family="sans-serif" font-size="14" lengthAdjust="spacing" textLength="4" x="963" y="183.0332">&#160;</text><rect fill="#F1F1F1" height="12" style="stroke:#181818;stroke-width:1.5;" width="12" x="959" y="156.5"/><text fill="#000000" font-family="sans-serif" font-size="14" lengthAdjust="spacing" textLength="4" x="963" y="94.4238">&#160;</text><rect fill="#F1F1F1" height="12" style="stroke:#181818;stroke-width:1.5;" width="12" x="959" y="109.5"/><text fill="#000000" font-family="sans-serif" font-size="14" lengthAdjust="spacing" textLength="4" x="852" y="233.0332">&#160;</text><rect fill="#F1F1F1" height="12" style="stroke:#181818;stroke-width:1.5;" width="12" x="848" y="206.5"/><text fill="#000000" font-family="sans-serif" font-size="14" lengthAdjust="spacing" textLength="4" x="516" y="156.4238">&#160;</text><rect fill="#F1F1F1" height="12" style="stroke:#181818;stroke-width:1.5;" width="12" x="512" y="171.5"/><text fill="#000000" font-family="sans-serif" font-size="14" lengthAdjust="spacing" textLength="4" x="516" y="245.0332">&#160;</text><rect fill="#F1F1F1" height="12" style="stroke:#181818;stroke-width:1.5;" width="12" x="512" y="218.5"/><text fill="#000000" font-family="sans-serif" font-size="14" lengthAdjust="spacing" textLength="4" x="298" y="142.0332">&#160;</text><rect fill="#F1F1F1" height="12" style="stroke:#181818;stroke-width:1.5;" width="12" x="294" y="115.5"/><text fill="#000000" font-family="sans-serif" font-size="14" lengthAdjust="spacing" textLength="4" x="298" y="53.4238">&#160;</text><rect fill="#F1F1F1" height="12" style="stroke:#181818;stroke-width:1.5;" width="12" x="294" y="68.5"/><text fill="#000000" font-family="sans-serif" font-size="14" lengthAdjust="spacing" textLength="4" x="298" y="219.4238">&#160;</text><rect fill="#F1F1F1" height="12" style="stroke:#181818;stroke-width:1.5;" width="12" x="294" y="234.5"/><!--entity User--><g id="elem_User"><ellipse cx="1393.5" cy="14" fill="#F1F1F1" rx="8" ry="8" style="stroke:#181818;stroke-width:0.5;"/><path d="M1393.5,22 L1393.5,49 M1380.5,30 L1406.5,30 M1393.5,49 L1380.5,64 M1393.5,49 L1406.5,64 " fill="none" style="stroke:#181818;stroke-width:0.5;"/><text fill="#000000" font-family="sans-serif" font-size="14" lengthAdjust="spacing" textLength="29" x="1379" y="80.0332">User</text></g><!--entity interface_frontendpage--><g id="elem_interface_frontendpage"><ellipse cx="1393.5" cy="127.5" fill="#F1F1F1" rx="8" ry="8" style="stroke:#181818;stroke-width:0.5;"/></g><!--entity interface_ai_grook_api--><g id="elem_interface_ai_grook_api"><ellipse cx="409" cy="50.5" fill="#F1F1F1" rx="8" ry="8" style="stroke:#181818;stroke-width:0.5;"/><text fill="#000000" font-family="sans-serif" font-size="14" lengthAdjust="spacing" textLength="57" x="380.5" y="82.0332">Groq API</text></g><!--entity interface_ai_api--><g id="elem_interface_ai_api"><ellipse cx="409" cy="145.5" fill="#F1F1F1" rx="8" ry="8" style="stroke:#181818;stroke-width:0.5;"/><text fill="#000000" font-family="sans-serif" font-size="14" lengthAdjust="spacing" textLength="37" x="390.5" y="177.0332">AI API</text></g><!--entity interface_google_api--><g id="elem_interface_google_api"><ellipse cx="854" cy="115.5" fill="#F1F1F1" rx="8" ry="8" style="stroke:#181818;stroke-width:0.5;"/><text fill="#000000" font-family="sans-serif" font-size="14" lengthAdjust="spacing" textLength="68" x="820" y="147.0332">Leaflet API</text></g><!--entity interface_backend--><g id="elem_interface_backend"><ellipse cx="965" cy="212.5" fill="#F1F1F1" rx="8" ry="8" style="stroke:#181818;stroke-width:0.5;"/><text fill="#000000" font-family="sans-serif" font-size="14" lengthAdjust="spacing" textLength="80" x="925" y="244.0332">Backend API</text></g><!--entity interface_mysql_db--><g id="elem_interface_mysql_db"><ellipse cx="409" cy="240.5" fill="#F1F1F1" rx="8" ry="8" style="stroke:#181818;stroke-width:0.5;"/><text fill="#000000" font-family="sans-serif" font-size="14" lengthAdjust="spacing" textLength="71" x="373.5" y="272.0332">MySQL API</text></g><!--link port_frontend_to_user to interface_frontendpage--><g id="link_port_frontend_to_user_interface_frontendpage"><path d="M1319.15,127.5 C1332.39,127.5 1367.68,127.5 1384.01,127.5 " fill="none" id="port_frontend_to_user-interface_frontendpage" style="stroke:#181818;stroke-width:1.0;"/></g><!--link User to interface_frontendpage--><g id="link_User_interface_frontendpage"><path d="M1393.5,83.77 C1393.5,95.32 1393.5,96.87 1393.5,108.42 " fill="none" id="User-to-interface_frontendpage" style="stroke:#181818;stroke-width:1.0;"/><path d="M1401.9572,115.3418 A9,9 0 0 0 1385.0428 115.3418" fill="none" style="stroke:#181818;stroke-width:1.5;"/></g><!--link port_backend_from_frontend to interface_backend--><g id="link_port_backend_from_frontend_interface_backend"><path d="M860.26,212.5 C877.86,212.5 934.83,212.5 955.99,212.5 " fill="none" id="port_backend_from_frontend-interface_backend" style="stroke:#181818;stroke-width:1.0;"/></g><!--reverse link interface_backend to port_frontend_to_backend--><g id="link_interface_backend_port_frontend_to_backend"><path d="M965,193.12 C965,181.59 965,180.06 965,168.53 " fill="none" id="interface_backend-backto-port_frontend_to_backend" style="stroke:#181818;stroke-width:1.0;"/><path d="M973.4572,200.0418 A9,9 0 0 0 956.5428 200.0418" fill="none" style="stroke:#181818;stroke-width:1.5;"/></g><!--link port_ai_to_backend_api to interface_ai_api--><g id="link_port_ai_to_backend_api_interface_ai_api"><path d="M306.16,122.66 C323.36,126.52 378.82,138.96 399.83,143.67 " fill="none" id="port_ai_to_backend_api-interface_ai_api" style="stroke:#181818;stroke-width:1.0;"/></g><!--link port_ai_to_groq_api to interface_ai_grook_api--><g id="link_port_ai_to_groq_api_interface_ai_grook_api"><path d="M306.16,73.34 C323.36,69.48 369.0622,59.2275 390.0722,54.5175 " fill="none" id="port_ai_to_groq_api-to-interface_ai_grook_api" style="stroke:#181818;stroke-width:1.0;"/><path d="M394.9764,44.7509 A9,9 0 0 0 398.6764 61.2558" fill="none" style="stroke:#181818;stroke-width:1.5;"/></g><!--reverse link interface_ai_api to port_backend_to_ai_api--><g id="link_interface_ai_api_port_backend_to_ai_api"><path d="M427.6208,150.7751 C448.5208,157.0251 494.54,170.78 511.81,175.95 " fill="none" id="interface_ai_api-backto-port_backend_to_ai_api" style="stroke:#181818;stroke-width:1.0;"/><path d="M418.5661,156.8946 A9,9 0 0 0 423.4122 140.6892" fill="none" style="stroke:#181818;stroke-width:1.5;"/></g><!--reverse link interface_google_api to port_backend_to_google_api--><g id="link_interface_google_api_port_backend_to_google_api"><path d="M873.19,115.5 C894.58,115.5 941.64,115.5 958.95,115.5 " fill="none" id="interface_google_api-backto-port_backend_to_google_api" style="stroke:#181818;stroke-width:1.0;"/><path d="M866.2682,123.9572 A9,9 0 0 0 866.2682 107.0428" fill="none" style="stroke:#181818;stroke-width:1.5;"/></g><!--link port_db_from_backend to interface_mysql_db--><g id="link_port_db_from_backend_interface_mysql_db"><path d="M306.16,240.5 C323.36,240.5 378.82,240.5 399.83,240.5 " fill="none" id="port_db_from_backend-interface_mysql_db" style="stroke:#181818;stroke-width:1.0;"/></g><!--reverse link interface_mysql_db to port_backend_from_db--><g id="link_interface_mysql_db_port_backend_from_db"><path d="M427.9297,237.8189 C448.8297,234.6889 494.54,227.86 511.81,225.28 " fill="none" id="interface_mysql_db-backto-port_backend_from_db" style="stroke:#181818;stroke-width:1.0;"/><path d="M422.3368,247.2081 A9,9 0 0 0 419.8316 230.4801" fill="none" style="stroke:#181818;stroke-width:1.5;"/></g><!--SRC=[ZPJTReCW5CVlUOeJhthZGtHPjdJfagrDhmqgMb852zZ5B7lt7QbOMy6jlK7udNF-d0ygLXWm4XGlZmPohbXck1I4qCn81GVD526Ph1ifc32W6Exp2qiA9OLX8WUg8Thrkx1Z6YcDf_0od4RmJG1_ZLH6jWOY_AD1_pbwI8nCsZwC0xa8SYdDJhWCeSDnJvPIbXLBQCF9pqI_xhHXjGEj-3TweR2t-_1qtL-IxMAWh7hKzWz1b5inVu3MQvwYvebeD9ryeEJr1ZuwSvG2pYrJ7MIOTgFQlc9Bqj7FBOTtQlnagUHvo239gQ4frGpS8gaxVQvGgrNqtkq_jzW15UsxXrRmF61BUlBqUbzNLGp3CPsge1c3SJKckQ4biy4WyeEe6YNBKw_PWgzu0LX_R288yOx4Z5hE3zwQoS9RHekA6MlXvQVjDRJKWWnF8gymySu9nBdy4d4WGUHW4JlEyIe4aN0hpzsxyeIc4U8A7v6xOCw4-Fjk7cEO3a_p3UmgKEU7guo31d7RF1gD4RplnCnYyeGGNxz277kgI7ppFFFjw5y0]--></g></svg>