<?xml version="1.0" encoding="us-ascii" standalone="no"?><svg xmlns="http://www.w3.org/2000/svg" xmlns:xlink="http://www.w3.org/1999/xlink" contentStyleType="text/css" height="559px" preserveAspectRatio="none" style="width:1042px;height:559px;background:#FFFFFF;" version="1.1" viewBox="0 0 1042 559" width="1042px" zoomAndPan="magnify"><defs/><g><!--cluster reactive_frontend--><g id="cluster_reactive_frontend"><rect fill="none" height="50" rx="2.5" ry="2.5" style="stroke:#181818;stroke-width:1.0;" width="331.5" x="595" y="98.5"/><rect fill="none" height="10" style="stroke:#181818;stroke-width:1.0;" width="15" x="906.5" y="103.5"/><rect fill="none" height="2" style="stroke:#181818;stroke-width:1.0;" width="4" x="904.5" y="105.5"/><rect fill="none" height="2" style="stroke:#181818;stroke-width:1.0;" width="4" x="904.5" y="109.5"/><text fill="#000000" font-family="sans-serif" font-size="14" font-weight="bold" lengthAdjust="spacing" textLength="175" x="673.25" y="126.0332">React Reactive Frontend</text></g><!--cluster system_backend--><g id="cluster_system_backend"><rect fill="none" height="130" rx="2.5" ry="2.5" style="stroke:#181818;stroke-width:1.0;" width="300" x="295" y="154.5"/><rect fill="none" height="10" style="stroke:#181818;stroke-width:1.0;" width="15" x="575" y="159.5"/><rect fill="none" height="2" style="stroke:#181818;stroke-width:1.0;" width="4" x="573" y="161.5"/><rect fill="none" height="2" style="stroke:#181818;stroke-width:1.0;" width="4" x="573" y="165.5"/><text fill="#000000" font-family="sans-serif" font-size="14" font-weight="bold" lengthAdjust="spacing" textLength="152" x="369" y="182.0332">Java System Backend</text></g><!--cluster database_mysql_db--><g id="cluster_database_mysql_db"><path d="M6,484.5 C6,474.5 150.5,474.5 150.5,474.5 C150.5,474.5 295,474.5 295,484.5 L295,532.5 C295,542.5 150.5,542.5 150.5,542.5 C150.5,542.5 6,542.5 6,532.5 L6,484.5 " fill="none" style="stroke:#181818;stroke-width:1.0;"/><path d="M6,484.5 C6,494.5 150.5,494.5 150.5,494.5 C150.5,494.5 295,494.5 295,484.5 " fill="none" style="stroke:#181818;stroke-width:1.0;"/><text fill="#000000" font-family="sans-serif" font-size="14" font-weight="bold" lengthAdjust="spacing" textLength="191" x="55" y="511.0332">MySQL Relational Database</text></g><text fill="#000000" font-family="sans-serif" font-size="14" lengthAdjust="spacing" textLength="4" x="924.5" y="103.4238">&#160;</text><rect fill="#F1F1F1" height="12" style="stroke:#181818;stroke-width:1.5;" width="12" x="920.5" y="118.5"/><text fill="#000000" font-family="sans-serif" font-size="14" lengthAdjust="spacing" textLength="4" x="593" y="151.0332">&#160;</text><rect fill="#F1F1F1" height="12" style="stroke:#181818;stroke-width:1.5;" width="12" x="589" y="124.5"/><text fill="#000000" font-family="sans-serif" font-size="14" lengthAdjust="spacing" textLength="4" x="593" y="195.4238">&#160;</text><rect fill="#F1F1F1" height="12" style="stroke:#181818;stroke-width:1.5;" width="12" x="589" y="210.5"/><text fill="#000000" font-family="sans-serif" font-size="14" lengthAdjust="spacing" textLength="4" x="293" y="198.4238">&#160;</text><rect fill="#F1F1F1" height="12" style="stroke:#181818;stroke-width:1.5;" width="12" x="289" y="213.5"/><text fill="#000000" font-family="sans-serif" font-size="14" lengthAdjust="spacing" textLength="4" x="293" y="151.4238">&#160;</text><rect fill="#F1F1F1" height="12" style="stroke:#181818;stroke-width:1.5;" width="12" x="289" y="166.5"/><text fill="#000000" font-family="sans-serif" font-size="14" lengthAdjust="spacing" textLength="4" x="293" y="287.0332">&#160;</text><rect fill="#F1F1F1" height="12" style="stroke:#181818;stroke-width:1.5;" width="12" x="289" y="260.5"/><text fill="#000000" font-family="sans-serif" font-size="14" lengthAdjust="spacing" textLength="4" x="293" y="487.4238">&#160;</text><rect fill="#F1F1F1" height="12" style="stroke:#181818;stroke-width:1.5;" width="12" x="289" y="502.5"/><!--entity User--><g id="elem_User"><ellipse cx="926.5" cy="14" fill="#F1F1F1" rx="8" ry="8" style="stroke:#181818;stroke-width:0.5;"/><path d="M926.5,22 L926.5,49 M913.5,30 L939.5,30 M926.5,49 L913.5,64 M926.5,49 L939.5,64 " fill="none" style="stroke:#181818;stroke-width:0.5;"/><text fill="#000000" font-family="sans-serif" font-size="14" lengthAdjust="spacing" textLength="29" x="912" y="80.0332">User</text></g><!--entity interface_frontendpage--><g id="elem_interface_frontendpage"><ellipse cx="1028" cy="84.5" fill="#F1F1F1" rx="8" ry="8" style="stroke:#181818;stroke-width:0.5;"/></g><!--entity interface_ai_api--><g id="elem_interface_ai_api"><ellipse cx="445" cy="413.5" fill="#F1F1F1" rx="8" ry="8" style="stroke:#181818;stroke-width:0.5;"/><text fill="#000000" font-family="sans-serif" font-size="14" lengthAdjust="spacing" textLength="37" x="426.5" y="445.0332">AI API</text></g><!--entity interface_google_api--><g id="elem_interface_google_api"><ellipse cx="445" cy="318.5" fill="#F1F1F1" rx="8" ry="8" style="stroke:#181818;stroke-width:0.5;"/><text fill="#000000" font-family="sans-serif" font-size="14" lengthAdjust="spacing" textLength="71" x="409.5" y="350.0332">Google API</text></g><!--entity interface_backend--><g id="elem_interface_backend"><ellipse cx="756.5" cy="205.5" fill="#F1F1F1" rx="8" ry="8" style="stroke:#181818;stroke-width:0.5;"/><text fill="#000000" font-family="sans-serif" font-size="14" lengthAdjust="spacing" textLength="80" x="716.5" y="237.0332">Backend API</text></g><!--entity interface_mysql_db--><g id="elem_interface_mysql_db"><ellipse cx="445" cy="508.5" fill="#F1F1F1" rx="8" ry="8" style="stroke:#181818;stroke-width:0.5;"/><text fill="#000000" font-family="sans-serif" font-size="14" lengthAdjust="spacing" textLength="71" x="409.5" y="540.0332">MySQL API</text></g><!--link port_frontend_to_user to interface_frontendpage--><g id="link_port_frontend_to_user_interface_frontendpage"><path d="M932.57,122.46 C948.73,115.97 999.1,95.72 1018.89,87.76 " fill="none" id="port_frontend_to_user-interface_frontendpage" style="stroke:#181818;stroke-width:1.0;"/></g><!--link User to interface_frontendpage--><g id="link_User_interface_frontendpage"><path d="M941.34,50.06 C962.37,58.52 992.4816,70.6201 1009.5216,77.4701 " fill="none" id="User-to-interface_frontendpage" style="stroke:#181818;stroke-width:1.0;"/><path d="M1019.0984,72.2049 A9,9 0 0 0 1012.7895 87.8988" fill="none" style="stroke:#181818;stroke-width:1.5;"/></g><!--link port_backend_from_frontend to interface_backend--><g id="link_port_backend_from_frontend_interface_backend"><path d="M601.31,216.13 C624.77,214.52 719.25,208 747.49,206.05 " fill="none" id="port_backend_from_frontend-interface_backend" style="stroke:#181818;stroke-width:1.0;"/></g><!--link port_frontend_to_backend to interface_backend--><g id="link_port_frontend_to_backend_interface_backend"><path d="M601.31,133 C624.77,144.03 710.2007,184.1945 738.4407,197.4745 " fill="none" id="port_frontend_to_backend-to-interface_backend" style="stroke:#181818;stroke-width:1.0;"/><path d="M748.3034,192.7668 A9,9 0 0 0 741.1055 208.0733" fill="none" style="stroke:#181818;stroke-width:1.5;"/></g><!--link port_backend_to_ai_api to interface_ai_api--><g id="link_port_backend_to_ai_api_interface_ai_api"><path d="M299.69,225.68 C302.45,230.45 306.22,237.27 309,243.5 C332.67,296.51 314.77,322.8 353,366.5 C376.3,393.13 408.7062,404.1516 426.2862,408.9016 " fill="none" id="port_backend_to_ai_api-to-interface_ai_api" style="stroke:#181818;stroke-width:1.0;"/><path d="M435.1744,402.5426 A9,9 0 0 0 430.7624 418.8715" fill="none" style="stroke:#181818;stroke-width:1.5;"/></g><!--link port_backend_to_google_api to interface_google_api--><g id="link_port_backend_to_google_api_interface_google_api"><path d="M299.95,178.76 C308.59,192.19 330.25,224.46 353,247.5 C380.59,275.45 410.9449,296.695 427.5549,307.705 " fill="none" id="port_backend_to_google_api-to-interface_google_api" style="stroke:#181818;stroke-width:1.0;"/><path d="M437.9969,304.4801 A9,9 0 0 0 428.6517 318.5785" fill="none" style="stroke:#181818;stroke-width:1.5;"/></g><!--link port_db_from_backend to interface_mysql_db--><g id="link_port_db_from_backend_interface_mysql_db"><path d="M301.27,508.5 C323.41,508.5 409.03,508.5 435.89,508.5 " fill="none" id="port_db_from_backend-interface_mysql_db" style="stroke:#181818;stroke-width:1.0;"/></g><!--link port_backend_from_db to interface_mysql_db--><g id="link_port_backend_from_db_interface_mysql_db"><path d="M296.11,272.71 C296.91,298.81 303.21,401.07 353,461.5 C375.5,488.81 408.3212,499.5848 426.1312,504.1348 " fill="none" id="port_backend_from_db-to-interface_mysql_db" style="stroke:#181818;stroke-width:1.0;"/><path d="M434.931,497.654 A9,9 0 0 0 430.7442 514.0421" fill="none" style="stroke:#181818;stroke-width:1.5;"/></g><!--SRC=[ZLFBReCm4BplLwouq4i-8bKVIjLARQASaG67MW5CZHCfglBlDNu5g4qB5xCxkxFCUcfwa2Wv2bPzIYoPe8Lal0KWXUG2zpqL00LlEjxILgAWAixED3i8tahQbaXwJBP35BSsXqysb-0te7ewBYG_IKpKg-33fw_F9CzE0ua3iZQAoqbnL4UuZWRgBxsaZKlfQLx8cU1En_7Un9SciQK3K-FfOkCui9g6i8nqx1_0YlEgfXwSBgDfGrYTcT_wgxaUkSoL893U9F6dIIyjpUCGiDeCcgGnKSQLXiQ9drwX99BafAVe3bbpwRzgDOacURliFbxLRQZ9S9D8ZGyMjhI5Cf_Ig5y2O6eNua0AYlxaDzIHYcewJC90inyDMMzm_Rv948F0stuq-5b_we8WV7pLxFKotOFeW386d8RG8zdRNmip8q7GFhXQHJI2lKdVnV8GTy6qgrjDp9Sp4WUV4NZdpE3MJd7ppF0ZLq7e1ardTsk0a7zcdJqMqcKlJ2d6kxEL4LlF-CQ5Fm00]--></g></svg>