<?xml version="1.0" encoding="us-ascii" standalone="no"?><svg xmlns="http://www.w3.org/2000/svg" xmlns:xlink="http://www.w3.org/1999/xlink" contentStyleType="text/css" height="288px" preserveAspectRatio="none" style="width:1316px;height:288px;background:#FFFFFF;" version="1.1" viewBox="0 0 1316 288" width="1316px" zoomAndPan="magnify"><defs/><g><!--cluster reactive_frontend--><g id="cluster_reactive_frontend"><rect fill="none" height="52" rx="2.5" ry="2.5" style="stroke:#181818;stroke-width:1.0;" width="326" x="888" y="101.5"/><rect fill="none" height="10" style="stroke:#181818;stroke-width:1.0;" width="15" x="1194" y="106.5"/><rect fill="none" height="2" style="stroke:#181818;stroke-width:1.0;" width="4" x="1192" y="108.5"/><rect fill="none" height="2" style="stroke:#181818;stroke-width:1.0;" width="4" x="1192" y="112.5"/><text fill="#000000" font-family="sans-serif" font-size="14" font-weight="bold" lengthAdjust="spacing" textLength="175" x="963.5" y="129.0332">React Reactive Frontend</text></g><!--cluster system_backend--><g id="cluster_system_backend"><rect fill="none" height="130" rx="2.5" ry="2.5" style="stroke:#181818;stroke-width:1.0;" width="300" x="513" y="77.5"/><rect fill="none" height="10" style="stroke:#181818;stroke-width:1.0;" width="15" x="793" y="82.5"/><rect fill="none" height="2" style="stroke:#181818;stroke-width:1.0;" width="4" x="791" y="84.5"/><rect fill="none" height="2" style="stroke:#181818;stroke-width:1.0;" width="4" x="791" y="88.5"/><text fill="#000000" font-family="sans-serif" font-size="14" font-weight="bold" lengthAdjust="spacing" textLength="152" x="587" y="105.0332">Java System Backend</text></g><!--cluster database_mysql_db--><g id="cluster_database_mysql_db"><path d="M6,213.5 C6,203.5 150.5,203.5 150.5,203.5 C150.5,203.5 295,203.5 295,213.5 L295,261.5 C295,271.5 150.5,271.5 150.5,271.5 C150.5,271.5 6,271.5 6,261.5 L6,213.5 " fill="none" style="stroke:#181818;stroke-width:1.0;"/><path d="M6,213.5 C6,223.5 150.5,223.5 150.5,223.5 C150.5,223.5 295,223.5 295,213.5 " fill="none" style="stroke:#181818;stroke-width:1.0;"/><text fill="#000000" font-family="sans-serif" font-size="14" font-weight="bold" lengthAdjust="spacing" textLength="191" x="55" y="240.0332">MySQL Relational Database</text></g><text fill="#000000" font-family="sans-serif" font-size="14" lengthAdjust="spacing" textLength="4" x="1212" y="106.4238">&#160;</text><rect fill="#F1F1F1" height="12" style="stroke:#181818;stroke-width:1.5;" width="12" x="1208" y="121.5"/><text fill="#000000" font-family="sans-serif" font-size="14" lengthAdjust="spacing" textLength="4" x="886" y="106.4238">&#160;</text><rect fill="#F1F1F1" height="12" style="stroke:#181818;stroke-width:1.5;" width="12" x="882" y="121.5"/><text fill="#000000" font-family="sans-serif" font-size="14" lengthAdjust="spacing" textLength="4" x="811" y="198.0332">&#160;</text><rect fill="#F1F1F1" height="12" style="stroke:#181818;stroke-width:1.5;" width="12" x="807" y="171.5"/><text fill="#000000" font-family="sans-serif" font-size="14" lengthAdjust="spacing" textLength="4" x="511" y="121.4238">&#160;</text><rect fill="#F1F1F1" height="12" style="stroke:#181818;stroke-width:1.5;" width="12" x="507" y="136.5"/><text fill="#000000" font-family="sans-serif" font-size="14" lengthAdjust="spacing" textLength="4" x="511" y="74.4238">&#160;</text><rect fill="#F1F1F1" height="12" style="stroke:#181818;stroke-width:1.5;" width="12" x="507" y="89.5"/><text fill="#000000" font-family="sans-serif" font-size="14" lengthAdjust="spacing" textLength="4" x="511" y="210.0332">&#160;</text><rect fill="#F1F1F1" height="12" style="stroke:#181818;stroke-width:1.5;" width="12" x="507" y="183.5"/><text fill="#000000" font-family="sans-serif" font-size="14" lengthAdjust="spacing" textLength="4" x="293" y="216.4238">&#160;</text><rect fill="#F1F1F1" height="12" style="stroke:#181818;stroke-width:1.5;" width="12" x="289" y="231.5"/><!--entity User--><g id="elem_User"><ellipse cx="1294.5" cy="14" fill="#F1F1F1" rx="8" ry="8" style="stroke:#181818;stroke-width:0.5;"/><path d="M1294.5,22 L1294.5,49 M1281.5,30 L1307.5,30 M1294.5,49 L1281.5,64 M1294.5,49 L1307.5,64 " fill="none" style="stroke:#181818;stroke-width:0.5;"/><text fill="#000000" font-family="sans-serif" font-size="14" lengthAdjust="spacing" textLength="29" x="1280" y="80.0332">User</text></g><!--entity interface_frontendpage--><g id="elem_interface_frontendpage"><ellipse cx="1294.5" cy="127.5" fill="#F1F1F1" rx="8" ry="8" style="stroke:#181818;stroke-width:0.5;"/></g><!--entity interface_ai_api--><g id="elem_interface_ai_api"><ellipse cx="404" cy="142.5" fill="#F1F1F1" rx="8" ry="8" style="stroke:#181818;stroke-width:0.5;"/><text fill="#000000" font-family="sans-serif" font-size="14" lengthAdjust="spacing" textLength="37" x="385.5" y="174.0332">AI API</text></g><!--entity interface_google_api--><g id="elem_interface_google_api"><ellipse cx="404" cy="47.5" fill="#F1F1F1" rx="8" ry="8" style="stroke:#181818;stroke-width:0.5;"/><text fill="#000000" font-family="sans-serif" font-size="14" lengthAdjust="spacing" textLength="71" x="368.5" y="79.0332">Google API</text></g><!--entity interface_backend--><g id="elem_interface_backend"><ellipse cx="888" cy="177.5" fill="#F1F1F1" rx="8" ry="8" style="stroke:#181818;stroke-width:0.5;"/><text fill="#000000" font-family="sans-serif" font-size="14" lengthAdjust="spacing" textLength="80" x="848" y="209.0332">Backend API</text></g><!--entity interface_mysql_db--><g id="elem_interface_mysql_db"><ellipse cx="404" cy="237.5" fill="#F1F1F1" rx="8" ry="8" style="stroke:#181818;stroke-width:0.5;"/><text fill="#000000" font-family="sans-serif" font-size="14" lengthAdjust="spacing" textLength="71" x="368.5" y="269.0332">MySQL API</text></g><!--link port_frontend_to_user to interface_frontendpage--><g id="link_port_frontend_to_user_interface_frontendpage"><path d="M1220.15,127.5 C1233.39,127.5 1268.68,127.5 1285.01,127.5 " fill="none" id="port_frontend_to_user-interface_frontendpage" style="stroke:#181818;stroke-width:1.0;"/></g><!--link User to interface_frontendpage--><g id="link_User_interface_frontendpage"><path d="M1294.5,83.77 C1294.5,95.32 1294.5,96.87 1294.5,108.42 " fill="none" id="User-to-interface_frontendpage" style="stroke:#181818;stroke-width:1.0;"/><path d="M1302.9572,115.3418 A9,9 0 0 0 1286.0428 115.3418" fill="none" style="stroke:#181818;stroke-width:1.5;"/></g><!--link port_backend_from_frontend to interface_backend--><g id="link_port_backend_from_frontend_interface_backend"><path d="M819.25,177.5 C831.8,177.5 863.64,177.5 878.77,177.5 " fill="none" id="port_backend_from_frontend-interface_backend" style="stroke:#181818;stroke-width:1.0;"/></g><!--reverse link interface_backend to port_frontend_to_backend--><g id="link_interface_backend_port_frontend_to_backend"><path d="M888,158.12 C888,146.59 888,145.06 888,133.53 " fill="none" id="interface_backend-backto-port_frontend_to_backend" style="stroke:#181818;stroke-width:1.0;"/><path d="M896.4572,165.0418 A9,9 0 0 0 879.5428 165.0418" fill="none" style="stroke:#181818;stroke-width:1.5;"/></g><!--reverse link interface_ai_api to port_backend_to_ai_api--><g id="link_interface_ai_api_port_backend_to_ai_api"><path d="M423.04,142.5 C443.94,142.5 489.54,142.5 506.81,142.5 " fill="none" id="interface_ai_api-backto-port_backend_to_ai_api" style="stroke:#181818;stroke-width:1.0;"/><path d="M416.1182,150.9572 A9,9 0 0 0 416.1182 134.0428" fill="none" style="stroke:#181818;stroke-width:1.5;"/></g><!--reverse link interface_google_api to port_backend_to_google_api--><g id="link_interface_google_api_port_backend_to_google_api"><path d="M422.1649,55.2009 C443.0649,64.5709 489.54,85.42 506.81,93.17 " fill="none" id="interface_google_api-backto-port_backend_to_google_api" style="stroke:#181818;stroke-width:1.0;"/><path d="M412.389,60.0864 A9,9 0 0 0 419.3086 44.6521" fill="none" style="stroke:#181818;stroke-width:1.5;"/></g><!--link port_db_from_backend to interface_mysql_db--><g id="link_port_db_from_backend_interface_mysql_db"><path d="M301.16,237.5 C318.36,237.5 373.82,237.5 394.83,237.5 " fill="none" id="port_db_from_backend-interface_mysql_db" style="stroke:#181818;stroke-width:1.0;"/></g><!--reverse link interface_mysql_db to port_backend_from_db--><g id="link_interface_mysql_db_port_backend_from_db"><path d="M422.1649,229.7991 C443.0649,220.4291 489.54,199.58 506.81,191.83 " fill="none" id="interface_mysql_db-backto-port_backend_from_db" style="stroke:#181818;stroke-width:1.0;"/><path d="M419.3086,240.3479 A9,9 0 0 0 412.389 224.9136" fill="none" style="stroke:#181818;stroke-width:1.5;"/></g><!--SRC=[ZPFDReCm3CVlVWgBqovvY4xJfawRjBRg6Ha8B1eaB8HEQDgxBmH2Mv5KXKjY_nn_v9-QbmQDGYsgJuE5q3mtGaa0oetIUEou1iXLqoh9fK7DhLsSU5fg9GsN1LA7oNwqudxsuVFiI_0Nq7wjqaRr1XFxMtpSBl6fKMa_9l6Wa54ke_pBBk7leg1kw0nllCjLyqedmeEpu-DalrN973fcQfPqiN8yRAiXaL8hxW0hfQgQtmEx4ehCDWW56Sgeu-WNQJDqtxNrkXxVXyFkpKwyfl6sgCQd6RlLQP5D6Svp166xrINb79VLCeEMAkwIOH86fmauPBF5pSSsGGo2vmau-CLjNK0GlxpC-GAdquDqO2uJ346X8IlKZsIHVk7e4FSQs4CCWhXmriVxQSVaZAosR_0gcG-1iEQGzUqLFqinBhnLn8Kc8QGDP2mmOWYfTNMsf_y1]--></g></svg>