<svg xmlns="http://www.w3.org/2000/svg" xmlns:xlink="http://www.w3.org/1999/xlink" contentStyleType="text/css" height="425px" preserveAspectRatio="none" style="width:875px;height:425px;background:#FFFFFF;" version="1.1" viewBox="0 0 875 425" width="875px" zoomAndPan="magnify"><defs/><g><!--cluster Application Server--><g id="cluster_Application Server"><polygon fill="none" points="16,16,26,6,260,6,260,230,250,240,16,240,16,16" style="stroke:#181818;stroke-width:1.0;"/><line style="stroke:#181818;stroke-width:1.0;" x1="250" x2="260" y1="16" y2="6"/><line style="stroke:#181818;stroke-width:1.0;" x1="16" x2="250" y1="16" y2="16"/><line style="stroke:#181818;stroke-width:1.0;" x1="250" x2="250" y1="16" y2="240"/><text fill="#000000" font-family="sans-serif" font-size="14" font-weight="bold" lengthAdjust="spacing" textLength="146.1797" x="60.9102" y="31.9951">Application Server</text></g><!--cluster Database Server--><g id="cluster_Database Server"><polygon fill="none" points="71,302,81,292,278,292,278,398,268,408,71,408,71,302" style="stroke:#181818;stroke-width:1.0;"/><line style="stroke:#181818;stroke-width:1.0;" x1="268" x2="278" y1="302" y2="292"/><line style="stroke:#181818;stroke-width:1.0;" x1="71" x2="268" y1="302" y2="302"/><line style="stroke:#181818;stroke-width:1.0;" x1="268" x2="268" y1="302" y2="408"/><text fill="#000000" font-family="sans-serif" font-size="14" font-weight="bold" lengthAdjust="spacing" textLength="131.3867" x="104.8066" y="317.9951">Database Server</text></g><!--entity Backend (Java Spring Boot)--><g id="elem_Backend (Java Spring Boot)"><rect fill="#F1F1F1" height="36.2969" rx="2.5" ry="2.5" style="stroke:#181818;stroke-width:0.5;" width="211.6113" x="32" y="188"/><text fill="#000000" font-family="sans-serif" font-size="14" lengthAdjust="spacing" textLength="191.6113" x="42" y="210.9951">Backend (Java Spring Boot)</text></g><!--entity Frontend (React)--><g id="elem_Frontend (React)"><rect fill="#F1F1F1" height="36.2969" rx="2.5" ry="2.5" style="stroke:#181818;stroke-width:0.5;" width="138.5898" x="68.5" y="70"/><text fill="#000000" font-family="sans-serif" font-size="14" lengthAdjust="spacing" textLength="118.5898" x="78.5" y="92.9951">Frontend (React)</text></g><!--entity MySQL--><g id="elem_MySQL"><rect fill="#F1F1F1" height="36.2969" rx="2.5" ry="2.5" style="stroke:#181818;stroke-width:0.5;" width="68.0703" x="104" y="356"/><text fill="#000000" font-family="sans-serif" font-size="14" lengthAdjust="spacing" textLength="48.0703" x="114" y="378.9951">MySQL</text></g><!--entity External GPS API--><g id="elem_External GPS API"><polygon fill="#F1F1F1" points="352,193,362,183,509.5576,183,509.5576,219.2969,499.5576,229.2969,352,229.2969,352,193" style="stroke:#181818;stroke-width:0.5;"/><line style="stroke:#181818;stroke-width:0.5;" x1="499.5576" x2="509.5576" y1="193" y2="183"/><line style="stroke:#181818;stroke-width:0.5;" x1="352" x2="499.5576" y1="193" y2="193"/><line style="stroke:#181818;stroke-width:0.5;" x1="499.5576" x2="499.5576" y1="193" y2="229.2969"/><text fill="#000000" font-family="sans-serif" font-size="14" lengthAdjust="spacing" textLength="117.5576" x="367" y="215.9951">External GPS API</text></g><!--entity External AI API--><g id="elem_External AI API"><polygon fill="#F1F1F1" points="545.5,193,555.5,183,688.5859,183,688.5859,219.2969,678.5859,229.2969,545.5,229.2969,545.5,193" style="stroke:#181818;stroke-width:0.5;"/><line style="stroke:#181818;stroke-width:0.5;" x1="678.5859" x2="688.5859" y1="193" y2="183"/><line style="stroke:#181818;stroke-width:0.5;" x1="545.5" x2="678.5859" y1="193" y2="193"/><line style="stroke:#181818;stroke-width:0.5;" x1="678.5859" x2="678.5859" y1="193" y2="229.2969"/><text fill="#000000" font-family="sans-serif" font-size="14" lengthAdjust="spacing" textLength="103.0859" x="560.5" y="215.9951">External AI API</text></g><!--entity Email System--><g id="elem_Email System"><polygon fill="#F1F1F1" points="723.5,193,733.5,183,858.998,183,858.998,219.2969,848.998,229.2969,723.5,229.2969,723.5,193" style="stroke:#181818;stroke-width:0.5;"/><line style="stroke:#181818;stroke-width:0.5;" x1="848.998" x2="858.998" y1="193" y2="183"/><line style="stroke:#181818;stroke-width:0.5;" x1="723.5" x2="848.998" y1="193" y2="193"/><line style="stroke:#181818;stroke-width:0.5;" x1="848.998" x2="848.998" y1="193" y2="229.2969"/><text fill="#000000" font-family="sans-serif" font-size="14" lengthAdjust="spacing" textLength="95.498" x="738.5" y="215.9951">Email System</text></g><!--link Frontend (React) to Backend (Java Spring Boot)--><g id="link_Frontend (React)_Backend (Java Spring Boot)"><path d="M138,106.12 C138,128.05 138,159.85 138,181.81 " fill="none" id="Frontend (React)-to-Backend (Java Spring Boot)" style="stroke:#181818;stroke-width:1.0;"/><polygon fill="#181818" points="138,187.81,142,178.81,138,182.81,134,178.81,138,187.81" style="stroke:#181818;stroke-width:1.0;"/><text fill="#000000" font-family="sans-serif" font-size="13" lengthAdjust="spacing" textLength="71.3159" x="139" y="149.0669">HTTP/REST</text></g><!--link Backend (Java Spring Boot) to MySQL--><g id="link_Backend (Java Spring Boot)_MySQL"><path d="M138,224.14 C138,255.95 138,317.78 138,349.7 " fill="none" id="Backend (Java Spring Boot)-to-MySQL" style="stroke:#181818;stroke-width:1.0;"/><polygon fill="#181818" points="138,355.7,142,346.7,138,350.7,134,346.7,138,355.7" style="stroke:#181818;stroke-width:1.0;"/><text fill="#000000" font-family="sans-serif" font-size="13" lengthAdjust="spacing" textLength="66.7012" x="139" y="272.0669">JDBC/ORM</text></g><!--link Backend (Java Spring Boot) to External GPS API--><g id="link_Backend (Java Spring Boot)_External GPS API"><path d="M244.19,206 C279.73,206 308.7,206 341.81,206 " fill="none" id="Backend (Java Spring Boot)-to-External GPS API" style="stroke:#181818;stroke-width:1.0;"/><ellipse cx="351.81" cy="206" fill="#FFFFFF" rx="6" ry="6" style="stroke:#181818;stroke-width:1.5;"/><path d="M344.7389,198.9289 A10,10 0 0 0 344.7389 213.0711" fill="#FFFFFF" style="stroke:#181818;stroke-width:1.5;"/><text fill="#000000" font-family="sans-serif" font-size="13" lengthAdjust="spacing" textLength="71.3159" x="262.5" y="199.0669">HTTP/REST</text></g><!--link Backend (Java Spring Boot) to External AI API--><g id="link_Backend (Java Spring Boot)_External AI API"><path d="M181.15,187.87 C220.34,172.45 280.17,151.5 334.5,143 C416.42,130.19 500.8258,156.295 557.0758,179.155 " fill="none" id="Backend (Java Spring Boot)-to-External AI API" style="stroke:#181818;stroke-width:1.0;"/><ellipse cx="566.34" cy="182.92" fill="#FFFFFF" rx="6" ry="6" style="stroke:#181818;stroke-width:1.5;"/><path d="M562.4515,173.707 A10,10 0 0 0 557.127 186.8085" fill="#FFFFFF" style="stroke:#181818;stroke-width:1.5;"/><text fill="#000000" font-family="sans-serif" font-size="13" lengthAdjust="spacing" textLength="71.3159" x="335.5" y="149.0669">HTTP/REST</text></g><!--link Backend (Java Spring Boot) to Email System--><g id="link_Backend (Java Spring Boot)_Email System"><path d="M226.75,187.97 C347.19,164.65 556.04,128.64 631.5,143 C671.72,150.65 705.6883,164.0096 736.9083,178.6696 " fill="none" id="Backend (Java Spring Boot)-to-Email System" style="stroke:#181818;stroke-width:1.0;"/><ellipse cx="745.96" cy="182.92" fill="#FFFFFF" rx="6" ry="6" style="stroke:#181818;stroke-width:1.5;"/><path d="M742.565,173.514 A10,10 0 0 0 736.554 186.315" fill="#FFFFFF" style="stroke:#181818;stroke-width:1.5;"/><text fill="#000000" font-family="sans-serif" font-size="13" lengthAdjust="spacing" textLength="35.2485" x="595.5" y="149.0669">SMTP</text></g><!--SRC=[bP1FJy904CNl_HGldF10yCp1f1LKY8srsnlXC2mJic4xkzbkY8tnksi1ez84mnpd_TwRFytEYAT0DRIhlHEMg69h6O5r9DbQJX9n6yOWzTuQJT4uWUAmvp30UuAlMcQaTomR31Uq9oWVZ6oHEHTlLaVW8JY91w9aqbtxupjsIf7MrF1vPjwgr-SLVi3PM-GWPF5OAAJ5l2FxOZhlQpKP2zKsaUkJq5y8ez7TnKCmmLDL5UDofgha8dX8Egq_mMAQtOzVolmVp_0Mo_CBhvdvntzymjNsNt_gl2glYay0]--></g></svg>