<?xml version="1.0" encoding="us-ascii" standalone="no"?><svg xmlns="http://www.w3.org/2000/svg" xmlns:xlink="http://www.w3.org/1999/xlink" contentStyleType="text/css" height="414px" preserveAspectRatio="none" style="width:821px;height:414px;background:#FFFFFF;" version="1.1" viewBox="0 0 821 414" width="821px" zoomAndPan="magnify"><defs/><g><!--cluster Application Server--><g id="cluster_Application Server"><polygon fill="none" points="16,16,26,6,244,6,244,239,234,249,16,249,16,16" style="stroke:#181818;stroke-width:1.0;"/><line style="stroke:#181818;stroke-width:1.0;" x1="234" x2="244" y1="16" y2="6"/><line style="stroke:#181818;stroke-width:1.0;" x1="16" x2="234" y1="16" y2="16"/><line style="stroke:#181818;stroke-width:1.0;" x1="234" x2="234" y1="16" y2="249"/><text fill="#000000" font-family="sans-serif" font-size="14" font-weight="bold" lengthAdjust="spacing" textLength="130" x="61" y="33.5332">Application Server</text></g><!--cluster Database Server--><g id="cluster_Database Server"><polygon fill="none" points="49,312,59,302,242,302,242,387,232,397,49,397,49,312" style="stroke:#181818;stroke-width:1.0;"/><line style="stroke:#181818;stroke-width:1.0;" x1="232" x2="242" y1="312" y2="302"/><line style="stroke:#181818;stroke-width:1.0;" x1="49" x2="232" y1="312" y2="312"/><line style="stroke:#181818;stroke-width:1.0;" x1="232" x2="232" y1="312" y2="397"/><text fill="#000000" font-family="sans-serif" font-size="14" font-weight="bold" lengthAdjust="spacing" textLength="117" x="83" y="329.5332">Database Server</text></g><!--cluster AI Server--><g id="cluster_AI Server"><polygon fill="none" points="318,164,328,154,546,154,546,239,536,249,318,249,318,164" style="stroke:#181818;stroke-width:1.0;"/><line style="stroke:#181818;stroke-width:1.0;" x1="536" x2="546" y1="164" y2="154"/><line style="stroke:#181818;stroke-width:1.0;" x1="318" x2="536" y1="164" y2="164"/><line style="stroke:#181818;stroke-width:1.0;" x1="536" x2="536" y1="164" y2="249"/><text fill="#000000" font-family="sans-serif" font-size="14" font-weight="bold" lengthAdjust="spacing" textLength="65" x="395.5" y="181.5332">AI Server</text></g><!--entity Backend (Java Spring Boot)--><g id="elem_Backend (Java Spring Boot)"><rect fill="#F1F1F1" height="37.6094" rx="2.5" ry="2.5" style="stroke:#181818;stroke-width:0.5;" width="196" x="32" y="195"/><text fill="#000000" font-family="sans-serif" font-size="14" lengthAdjust="spacing" textLength="176" x="42" y="219.5332">Backend (Java Spring Boot)</text></g><!--entity Frontend (React)--><g id="elem_Frontend (React)"><rect fill="#F1F1F1" height="37.6094" rx="2.5" ry="2.5" style="stroke:#181818;stroke-width:0.5;" width="129" x="65.5" y="47"/><text fill="#000000" font-family="sans-serif" font-size="14" lengthAdjust="spacing" textLength="109" x="75.5" y="71.5332">Frontend (React)</text></g><!--entity MySQL--><g id="elem_MySQL"><rect fill="#F1F1F1" height="37.6094" rx="2.5" ry="2.5" style="stroke:#181818;stroke-width:0.5;" width="66" x="97" y="343"/><text fill="#000000" font-family="sans-serif" font-size="14" lengthAdjust="spacing" textLength="46" x="107" y="367.5332">MySQL</text></g><!--entity External GPS API--><g id="elem_External GPS API"><polygon fill="#F1F1F1" points="301.5,52,311.5,42,450.5,42,450.5,79.6094,440.5,89.6094,301.5,89.6094,301.5,52" style="stroke:#181818;stroke-width:0.5;"/><line style="stroke:#181818;stroke-width:0.5;" x1="440.5" x2="450.5" y1="52" y2="42"/><line style="stroke:#181818;stroke-width:0.5;" x1="301.5" x2="440.5" y1="52" y2="52"/><line style="stroke:#181818;stroke-width:0.5;" x1="440.5" x2="440.5" y1="52" y2="89.6094"/><text fill="#000000" font-family="sans-serif" font-size="14" lengthAdjust="spacing" textLength="109" x="316.5" y="76.5332">External GPS API</text></g><!--entity Query Constructor (Python)--><g id="elem_Query Constructor (Python)"><rect fill="#F1F1F1" height="37.6094" rx="2.5" ry="2.5" style="stroke:#181818;stroke-width:0.5;" width="195" x="334.5" y="195"/><text fill="#000000" font-family="sans-serif" font-size="14" lengthAdjust="spacing" textLength="175" x="344.5" y="219.5332">Query Constructor (Python)</text></g><!--entity External AI Groq API--><g id="elem_External AI Groq API"><polygon fill="#F1F1F1" points="636,200,646,190,804,190,804,227.6094,794,237.6094,636,237.6094,636,200" style="stroke:#181818;stroke-width:0.5;"/><line style="stroke:#181818;stroke-width:0.5;" x1="794" x2="804" y1="200" y2="190"/><line style="stroke:#181818;stroke-width:0.5;" x1="636" x2="794" y1="200" y2="200"/><line style="stroke:#181818;stroke-width:0.5;" x1="794" x2="794" y1="200" y2="237.6094"/><text fill="#000000" font-family="sans-serif" font-size="14" lengthAdjust="spacing" textLength="128" x="651" y="224.5332">External AI Groq API</text></g><!--link Frontend (React) to Backend (Java Spring Boot)--><g id="link_Frontend (React)_Backend (Java Spring Boot)"><path d="M130,85.2 C130,113.17 130,160.46 130,188.57 " fill="none" id="Frontend (React)-to-Backend (Java Spring Boot)" style="stroke:#181818;stroke-width:1.0;"/><polygon fill="#181818" points="130,194.57,134,185.57,130,189.57,126,185.57,130,194.57" style="stroke:#181818;stroke-width:1.0;"/><text fill="#000000" font-family="sans-serif" font-size="13" lengthAdjust="spacing" textLength="70" x="131" y="134.4951">HTTP/REST</text></g><!--link Backend (Java Spring Boot) to MySQL--><g id="link_Backend (Java Spring Boot)_MySQL"><path d="M130,233.2 C130,261.17 130,308.46 130,336.57 " fill="none" id="Backend (Java Spring Boot)-to-MySQL" style="stroke:#181818;stroke-width:1.0;"/><polygon fill="#181818" points="130,342.57,134,333.57,130,337.57,126,333.57,130,342.57" style="stroke:#181818;stroke-width:1.0;"/><text fill="#000000" font-family="sans-serif" font-size="13" lengthAdjust="spacing" textLength="67" x="131" y="282.4951">JDBC/ORM</text></g><!--link Frontend (React) to External GPS API--><g id="link_Frontend (React)_External GPS API"><path d="M194.63,66 C227.38,66 257.3,66 291.35,66 " fill="none" id="Frontend (React)-to-External GPS API" style="stroke:#181818;stroke-width:1.0;"/><ellipse cx="301.35" cy="66" fill="#FFFFFF" rx="6" ry="6" style="stroke:#181818;stroke-width:1.5;"/><path d="M294.2789,58.9289 A10,10 0 0 0 294.2789 73.0711" fill="#FFFFFF" style="stroke:#181818;stroke-width:1.5;"/><text fill="#000000" font-family="sans-serif" font-size="13" lengthAdjust="spacing" textLength="70" x="213" y="59.4951">HTTP/REST</text></g><!--link Backend (Java Spring Boot) to Query Constructor (Python)--><g id="link_Backend (Java Spring Boot)_Query Constructor (Python)"><path d="M228.05,214 C262.15,214 290.38,214 324.44,214 " fill="none" id="Backend (Java Spring Boot)-to-Query Constructor (Python)" style="stroke:#181818;stroke-width:1.0;"/><ellipse cx="334.44" cy="214" fill="#FFFFFF" rx="6" ry="6" style="stroke:#181818;stroke-width:1.5;"/><path d="M327.3689,206.9289 A10,10 0 0 0 327.3689 221.0711" fill="#FFFFFF" style="stroke:#181818;stroke-width:1.5;"/><text fill="#000000" font-family="sans-serif" font-size="13" lengthAdjust="spacing" textLength="70" x="246.25" y="207.4951">HTTP/REST</text></g><!--link Query Constructor (Python) to External AI Groq API--><g id="link_Query Constructor (Python)_External AI Groq API"><path d="M529.5,214 C563.94,214 592.34,214 625.6,214 " fill="none" id="Query Constructor (Python)-to-External AI Groq API" style="stroke:#181818;stroke-width:1.0;"/><ellipse cx="635.6" cy="214" fill="#FFFFFF" rx="6" ry="6" style="stroke:#181818;stroke-width:1.5;"/><path d="M628.5289,206.9289 A10,10 0 0 0 628.5289 221.0711" fill="#FFFFFF" style="stroke:#181818;stroke-width:1.5;"/><text fill="#000000" font-family="sans-serif" font-size="13" lengthAdjust="spacing" textLength="70" x="547.75" y="207.4951">HTTP/REST</text></g><!--SRC=[bP11Jy9048Nl_HKJJlL0yCp1f0L4YCJIxOrm69O9DfIPEbs8ZV6_Ir6nhQQ9UvnzxtlpfjYddAFY0QmSSc5YProP4IXPXxpBoFDOjWIz8C-prA9BXS6GdaXxyER1-Qr2j7lYBVXpF26ON5FUGIZYRjQVWdiLTXT5J6YhyVitTemEDrXGcxaepV9n3J_2oQiZPSnW6Xa8ebcbl7u6ixP_UIGjOIHSE3rQ9mf-LBfduNhubNdsJrLUQjpVEqE_VzVP5ORma2JH89wOnEiKNaXV3OSm7uUZmLEy-3FJluLLk_f_aYf_nosQf2vXSvFQmPgC3m00]--></g></svg>